<svg xmlns="http://www.w3.org/2000/svg" viewBox="0 0 64 64">
  <!-- Trip cover: pastel skyline -->
  <circle cx="32" cy="32" r="30" fill="#FFFFFF"/>
  <circle cx="32" cy="32" r="27" fill="#DCD0F2"/>
  <g stroke="#5B5468" stroke-width="2.5" stroke-linecap="round" stroke-linejoin="round">
    <rect x="12" y="26" width="12" height="22" fill="#F9C5D1"/>
    <rect x="26" y="16" width="12" height="32" fill="#FFF9F2"/>
    <rect x="40" y="30" width="12" height="18" fill="#BEE7D0"/>
    <g fill="#5B5468" stroke="none" opacity="0.7">
      <rect x="15" y="30" width="3" height="3"/><rect x="20" y="30" width="3" height="3"/>
      <rect x="15" y="37" width="3" height="3"/><rect x="20" y="37" width="3" height="3"/>
      <rect x="29" y="20" width="3" height="3"/><rect x="34" y="20" width="3" height="3"/>
      <rect x="29" y="27" width="3" height="3"/><rect x="34" y="27" width="3" height="3"/>
      <rect x="29" y="34" width="3" height="3"/><rect x="34" y="34" width="3" height="3"/>
      <rect x="43" y="34" width="3" height="3"/><rect x="48" y="34" width="3" height="3"/>
    </g>
    <circle cx="50" cy="14" r="3.5" fill="#FDE9A9"/>
  </g>
</svg>
