<svg xmlns="http://www.w3.org/2000/svg" viewBox="0 0 64 64">
  <!-- Trip cover: little car on a winding road -->
  <circle cx="32" cy="32" r="30" fill="#FFFFFF"/>
  <circle cx="32" cy="32" r="27" fill="#BEE7D0"/>
  <g stroke="#5B5468" stroke-width="2.5" stroke-linecap="round" stroke-linejoin="round">
    <path d="M10 52c14-6 30 4 44-10" fill="none" stroke="#5B5468" stroke-width="6" opacity="0.25"/>
    <path d="M10 52c14-6 30 4 44-10" fill="none" stroke="#FFF9F2" stroke-width="2" stroke-dasharray="3 5"/>
    <path d="M18 32h6l4-6h10l4 6h4a3 3 0 0 1 3 3v5H16v-5a3 3 0 0 1 2-3z" fill="#F9C5D1"/>
    <rect x="30" y="28" width="8" height="4" rx="1" fill="#BDE0FE" stroke="none"/>
    <circle cx="24" cy="41" r="3.5" fill="#5B5468"/>
    <circle cx="42" cy="41" r="3.5" fill="#5B5468"/>
    <circle cx="50" cy="14" r="4" fill="#FDE9A9"/>
  </g>
</svg>
