<svg viewBox="0 0 180 140" xmlns="http://www.w3.org/2000/svg">
  <ellipse cx="90" cy="130" rx="62" ry="8" fill="#1A1A2E" opacity="0.12"/>
  <path d="M28 68 Q28 112 90 112 Q152 112 152 68 Z" fill="#FFF3E6"/>
  <path d="M28 68 Q28 112 90 112 Q152 112 152 68" stroke="#3D1100" stroke-width="2" fill="none"/>
  <ellipse cx="90" cy="96" rx="40" ry="10" fill="#E85D04" opacity="0.18"/>
  <circle cx="70"  cy="91"  r="9" fill="#FAA307" opacity="0.95"/>
  <circle cx="93"  cy="84"  r="7" fill="#F48C06" opacity="0.95"/>
  <circle cx="114" cy="93"  r="8" fill="#C94E02" opacity="0.95"/>
  <path d="M58 76 Q72 62 88 76 Q104 90 118 74" stroke="#C94E02" stroke-width="2.5" stroke-linecap="round" fill="none" opacity="0.6"/>
  <rect x="20" y="60" width="140" height="14" rx="7" fill="#3D1100"/>
  <path d="M62 56 Q66 44 62 34 Q58 24 62 14"     stroke="#FFE7CC" stroke-width="2.5" stroke-linecap="round" fill="none" opacity="0.85"/>
  <path d="M90 53 Q94 41 90 31 Q86 21 90 11"     stroke="#FFE7CC" stroke-width="2.5" stroke-linecap="round" fill="none" opacity="0.85"/>
  <path d="M118 56 Q122 44 118 34 Q114 24 118 14" stroke="#FFE7CC" stroke-width="2.5" stroke-linecap="round" fill="none" opacity="0.85"/>
</svg>
