<svg viewBox="0 0 200 200" xmlns="http://www.w3.org/2000/svg">
  <defs>
    <linearGradient id="bgb-accent" x1="0" y1="0" x2="1" y2="1">
      <stop offset="0%" stop-color="#f59e0b"/>
      <stop offset="100%" stop-color="#f97316"/>
    </linearGradient>
  </defs>
  <g opacity="0.18" stroke="#f59e0b" stroke-width="1.5" fill="none">
    <line x1="50" y1="20" x2="50" y2="180"/>
    <line x1="100" y1="20" x2="100" y2="180"/>
    <line x1="150" y1="20" x2="150" y2="180"/>
    <line x1="20" y1="50" x2="180" y2="50"/>
    <line x1="20" y1="100" x2="180" y2="100"/>
    <line x1="20" y1="150" x2="180" y2="150"/>
  </g>
  <rect x="55" y="40" width="90" height="90" rx="20" fill="url(#bgb-accent)"/>
  <circle cx="80" cy="80" r="6" fill="#1a0f0b"/>
  <circle cx="120" cy="80" r="6" fill="#1a0f0b"/>
  <path d="M80 102 Q100 118 120 102" stroke="#1a0f0b" stroke-width="4" fill="none" stroke-linecap="round"/>
  <g fill="url(#bgb-accent)">
    <circle cx="100" cy="148" r="14"/>
    <rect x="84" y="158" width="32" height="22" rx="9"/>
  </g>
  <g transform="translate(135, 110)">
    <rect x="0" y="0" width="48" height="48" rx="10" fill="#fff" opacity="0.95"/>
    <polygon points="10,48 22,48 14,60" fill="#fff" opacity="0.95"/>
    <g fill="#2a1812">
      <circle cx="12" cy="12" r="3.2"/>
      <circle cx="36" cy="12" r="3.2"/>
      <circle cx="24" cy="24" r="3.2"/>
      <circle cx="12" cy="36" r="3.2"/>
      <circle cx="36" cy="36" r="3.2"/>
    </g>
  </g>
</svg>
