<svg xmlns="http://www.w3.org/2000/svg" viewBox="0 0 200 140">
  <!-- Tutorial: start a trip — picking a cover sticker -->
  <g stroke="#5B5468" stroke-linecap="round" stroke-linejoin="round">
    <ellipse cx="100" cy="122" rx="64" ry="7" fill="#5B5468" opacity="0.08" stroke="none"/>
    <rect x="42" y="30" width="116" height="72" rx="14" fill="#FFFFFF" stroke-width="3"/>
    <rect x="54" y="42" width="60" height="10" rx="3" fill="#5B5468" opacity="0.15" stroke="none"/>
    <!-- cover sticker choices -->
    <g transform="translate(56 60)">
      <circle cx="14" cy="14" r="16" fill="#BDE0FE" stroke-width="2.5"/>
      <path d="M4 16l20-10-4 16z" fill="#FFF9F2" stroke-width="1.6"/>
    </g>
    <g transform="translate(94 60)">
      <circle cx="14" cy="14" r="16" fill="#FDE9A9" stroke-width="3.2"/>
      <path d="M2 20c8-2 16-2 24 0" fill="none" stroke-width="1.6"/>
      <path d="M4 12c8-8 16-8 22 0" fill="#F9C5D1" stroke-width="1.6"/>
    </g>
    <g transform="translate(132 60)">
      <circle cx="14" cy="14" r="16" fill="#BEE7D0" stroke-width="2.5"/>
      <path d="M4 22l8-14 6 8 4-4 4 10z" fill="#DCD0F2" stroke-width="1.4"/>
    </g>
    <!-- selected ring -->
    <circle cx="108" cy="74" r="19" fill="none" stroke="#F0A3B8" stroke-width="2.5" stroke-dasharray="3 4"/>
    <path d="M144 26l1.4 3.6 3.6 1.4-3.6 1.4-1.4 3.6-1.4-3.6-3.6-1.4 3.6-1.4z" fill="#F4A988" stroke-width="1.2"/>
  </g>
</svg>
