<svg xmlns="http://www.w3.org/2000/svg" viewBox="0 0 200 140">
  <!-- Tutorial: organize — a scrap card with a category badge and a heart being tapped -->
  <g stroke="#5B5468" stroke-linecap="round" stroke-linejoin="round">
    <ellipse cx="100" cy="122" rx="60" ry="7" fill="#5B5468" opacity="0.08" stroke="none"/>
    <g transform="rotate(-3 100 62)">
      <rect x="52" y="24" width="96" height="76" rx="12" fill="#FFFFFF" stroke-width="3"/>
      <rect x="64" y="36" width="72" height="34" rx="6" fill="#BEE7D0" stroke-width="2"/>
      <circle cx="82" cy="53" r="8" fill="#FFF9F2" stroke-width="1.8"/>
      <path d="M96 48h30M96 56h22" stroke-width="2" opacity="0.5"/>
      <path d="M64 78h20" stroke-width="2.4"/>
      <rect x="90" y="74" width="34" height="10" rx="5" fill="#FDE9A9" stroke-width="1.8"/>
    </g>
    <!-- heart favorite, mid-tap -->
    <g transform="translate(126 20)">
      <circle cx="14" cy="14" r="15" fill="#FFFFFF" stroke-width="2.5"/>
      <path d="M14 20c-5-3.6-8-6.4-8-9.8a4.2 4.2 0 0 1 8-1.8 4.2 4.2 0 0 1 8 1.8c0 3.4-3 6.2-8 9.8z" fill="#F4A988" stroke-width="1.6"/>
    </g>
    <path d="M136 8l1.4 3.6 3.6 1.4-3.6 1.4-1.4 3.6-1.4-3.6-3.6-1.4 3.6-1.4z" fill="#DCD0F2" stroke-width="1.2"/>
    <path d="M46 40l1.4 3.6 3.6 1.4-3.6 1.4-1.4 3.6-1.4-3.6-3.6-1.4 3.6-1.4z" fill="#BDE0FE" stroke-width="1.2"/>
  </g>
</svg>
