<svg viewBox="0 0 160 160" xmlns="http://www.w3.org/2000/svg" role="img" aria-label="Pocket Buddy badge — Buddy living inside a phone">
  <title>Pocket Buddy badge — Buddy living inside a phone</title>
  <!-- BoardgameBuddy achievement badge. The medallion keeps its own dark
       ground in both themes on purpose (.claude/rules/assets.md): it is a coin
       on the table, not a mark drawn against the page. The rim colour is the
       tier — bronze, silver, gold. -->
  <defs>
    <linearGradient id="pocket-buddy-gold" x1="0" y1="0" x2="1" y2="1">
      <stop offset="0%" stop-color="#F0C662"/>
      <stop offset="55%" stop-color="#E0A94A"/>
      <stop offset="100%" stop-color="#C9922A"/>
    </linearGradient>
    <radialGradient id="pocket-buddy-disc" cx="0.34" cy="0.26" r="0.86">
      <stop offset="0%" stop-color="#3C2A1E"/>
      <stop offset="100%" stop-color="#160F0A"/>
    </radialGradient>
    <clipPath id="pocket-buddy-clip">
      <circle cx="80" cy="80" r="70"/>
    </clipPath>
  </defs>
  <circle cx="80" cy="80" r="76" fill="url(#pocket-buddy-disc)"/>
  <g clip-path="url(#pocket-buddy-clip)">
    <rect x="44" y="24" width="72" height="118" rx="14" fill="#F8F2E5"/><rect x="50" y="34" width="60" height="98" rx="7" fill="#2A1812"/><rect x="70" y="28" width="20" height="3.4" rx="1.7" fill="#1A0F0B" opacity="0.35"/><rect x="70" y="134" width="20" height="3.4" rx="1.7" fill="#1A0F0B" opacity="0.35"/><g transform="translate(40.00 40.00) scale(0.4)">
    <circle cx="100" cy="148" r="14" fill="url(#pocket-buddy-gold)"/>
    <rect x="84" y="158" width="32" height="22" rx="9" fill="url(#pocket-buddy-gold)"/>
    <rect x="55" y="40" width="90" height="90" rx="20" fill="url(#pocket-buddy-gold)"/>
    <circle cx="80" cy="80" r="6" fill="#1A0F0B"/>
    <circle cx="120" cy="80" r="6" fill="#1A0F0B"/>
    <path d="M78 100 Q100 124 122 100" stroke="#1A0F0B" stroke-width="4" fill="none" stroke-linecap="round"/>
  </g><path d="M30 40 Q31.3 44.7 36 46 Q31.3 47.3 30 52 Q28.7 47.3 24 46 Q28.7 44.7 30 40 Z" fill="#F0C662" opacity="0.9"/><path d="M132 101 Q133.1 104.9 137 106 Q133.1 107.1 132 111 Q130.9 107.1 127 106 Q130.9 104.9 132 101 Z" fill="#F0C662" opacity="0.9"/>
  </g>
  <circle cx="80" cy="80" r="72.5" fill="none" stroke="#E0A94A" stroke-width="4"/>
  <circle cx="80" cy="80" r="65" fill="none" stroke="#E0A94A" stroke-width="1.4" opacity="0.34"/>
</svg>
