<svg viewBox="0 0 200 160" xmlns="http://www.w3.org/2000/svg">
  <ellipse cx="100" cy="148" rx="76" ry="6" fill="#1C1C1E" opacity="0.08"/>
  <path d="M16 44 Q60 28 100 44 Q140 28 184 44 L184 134 Q140 120 100 134 Q60 120 16 134 Z"
        fill="#F0EDE8" stroke="#4A7C7C" stroke-width="2.5" stroke-linejoin="round"/>
  <line x1="100" y1="44" x2="100" y2="134" stroke="#4A7C7C" stroke-width="2.5" stroke-linecap="round"/>
  <g stroke="#4A7C7C" stroke-width="2" stroke-linecap="round" opacity="0.7">
    <line x1="32" y1="60" x2="84" y2="56"/>
    <line x1="32" y1="74" x2="84" y2="70"/>
    <line x1="32" y1="88" x2="76" y2="84"/>
    <line x1="116" y1="56" x2="168" y2="60"/>
    <line x1="116" y1="70" x2="168" y2="74"/>
    <line x1="116" y1="84" x2="160" y2="88"/>
  </g>
  <g transform="translate(54 102)">
    <circle r="14" fill="#4A7C7C"/>
    <text y="5" text-anchor="middle" font-family="Inter, sans-serif" font-size="14" font-weight="700" fill="#F0EDE8">A</text>
  </g>
  <g transform="translate(146 102)">
    <circle r="14" fill="#3A6A6A"/>
    <text y="5" text-anchor="middle" font-family="Inter, sans-serif" font-size="14" font-weight="700" fill="#F0EDE8">Z</text>
  </g>
</svg>
