<svg width="512" height="512" viewBox="0 0 512 512" xmlns="http://www.w3.org/2000/svg">
  <defs>
    <linearGradient id="bg" x1="0" y1="0" x2="1" y2="1">
      <stop offset="0%" stop-color="#1a0f0b"/>
      <stop offset="100%" stop-color="#2a1812"/>
    </linearGradient>

    <linearGradient id="accent" x1="0" y1="0" x2="1" y2="1">
      <stop offset="0%" stop-color="#f59e0b"/>
      <stop offset="100%" stop-color="#f97316"/>
    </linearGradient>
  </defs>

  <!-- Background -->
  <rect width="512" height="512" rx="96" fill="url(#bg)" />

  <!-- Subtle board grid -->
  <g opacity="0.08" stroke="#f59e0b" stroke-width="2">
    <line x1="128" y1="64" x2="128" y2="448"/>
    <line x1="256" y1="64" x2="256" y2="448"/>
    <line x1="384" y1="64" x2="384" y2="448"/>
    <line x1="64" y1="128" x2="448" y2="128"/>
    <line x1="64" y1="256" x2="448" y2="256"/>
    <line x1="64" y1="384" x2="448" y2="384"/>
  </g>

  <!-- Buddy head -->
  <rect x="176" y="120" width="160" height="160" rx="32" fill="url(#accent)" />

  <!-- Face -->
  <circle cx="220" cy="190" r="10" fill="#1a0f0b"/>
  <circle cx="292" cy="190" r="10" fill="#1a0f0b"/>
  <path d="M220 230 Q256 260 292 230" stroke="#1a0f0b" stroke-width="6" fill="none" stroke-linecap="round"/>

  <!-- Body (now same gradient) -->
  <g fill="url(#accent)">
    <circle cx="256" cy="310" r="26"/>
    <rect x="226" y="330" width="60" height="40" rx="16"/>
    <rect x="206" y="360" width="100" height="24" rx="12"/>
  </g>

  <!-- Speech bubble -->
  <g transform="translate(300, 260)">
    <rect x="0" y="0" width="110" height="70" rx="20" fill="#ffffff" opacity="0.95"/>
    <polygon points="20,70 40,70 25,95" fill="#ffffff" opacity="0.95"/>

    <!-- Die face: 5 -->
    <g fill="#2a1812">
      <circle cx="30" cy="20" r="5"/>
      <circle cx="80" cy="20" r="5"/>
      <circle cx="55" cy="35" r="5"/>
      <circle cx="30" cy="50" r="5"/>
      <circle cx="80" cy="50" r="5"/>
    </g>
  </g>
</svg>
